<svg width="24" height="24" viewBox="0 0 24 24" fill="none" xmlns="http://www.w3.org/2000/svg">
<path opacity="0.35" d="M20.011 3.989C18.693 2.671 16.556 2.671 15.238 3.989L4.20798 14.998C3.90598 15.3 3.70498 15.687 3.63198 16.108L3.01698 19.675C2.88398 20.447 3.55498 21.117 4.32698 20.983L7.85198 20.37C8.26998 20.297 8.65598 20.097 8.95598 19.797L20.011 8.761C21.33 7.443 21.33 5.307 20.011 3.989Z" fill="#A5ABB3"/>
<path d="M13.075 6.144L17.848 10.917L19.832 8.94L15.059 4.167L13.075 6.144Z" fill="#A5ABB3"/>
<path d="M3.39198 17.5L3.01698 19.675C2.88398 20.447 3.55498 21.117 4.32698 20.983L6.49798 20.605L3.39198 17.5Z" fill="#A5ABB3"/>
</svg>
