<svg width="65" height="65" viewBox="0 0 65 65" fill="none" xmlns="http://www.w3.org/2000/svg">
<circle cx="32.5" cy="32.5" r="32.5" fill="#F4F7FE"/>
<path opacity="0.35" d="M29.6288 16.7036C22.3643 16.7036 16.4741 22.5939 16.4741 29.8584C16.4741 31.9523 16.9755 33.924 17.8468 35.6821L16.5251 40.9687C16.2233 42.1728 17.3144 43.2639 18.5185 42.9621L23.8051 41.6404C25.5632 42.5117 27.5349 43.0131 29.6288 43.0131C36.8933 43.0131 42.7836 37.1229 42.7836 29.8584C42.7836 22.5939 36.8933 16.7036 29.6288 16.7036Z" fill="#5F41B2"/>
<path d="M45.41 37.7465L47.377 45.6115C47.6788 46.8156 46.5877 47.9066 45.3837 47.6048L37.5187 45.6378L45.41 37.7465Z" fill="#5F41B2"/>
<path d="M40.9482 23.1819C42.1073 25.1397 42.7836 27.4178 42.7836 29.8584C42.7836 37.1229 36.8934 43.0131 29.6289 43.0131C27.1883 43.0131 24.9102 42.3368 22.9525 41.1776C25.2414 45.0513 29.4478 47.656 34.2717 47.656C41.5363 47.656 47.4265 41.7657 47.4265 34.5012C47.4265 29.6773 44.8219 25.4709 40.9482 23.1819Z" fill="#5F41B2"/>
</svg>
