<svg width="1123" height="475" viewBox="0 0 1123 475" fill="none" xmlns="http://www.w3.org/2000/svg">
<g filter="url(#filter0_dd_0_137)">
<rect x="64" y="56" width="995" height="347" rx="8" fill="white"/>
<path d="M109.592 120V105.552H104.768V102.96H117.392V105.552H112.496V120H109.592ZM123.153 120.192C122.257 120.192 121.425 120.04 120.657 119.736C119.905 119.432 119.257 119.008 118.713 118.464C118.169 117.92 117.745 117.28 117.441 116.544C117.153 115.792 117.009 115 117.009 114.168C117.009 113.32 117.153 112.528 117.441 111.792C117.745 111.04 118.169 110.392 118.713 109.848C119.257 109.304 119.905 108.88 120.657 108.576C121.425 108.272 122.257 108.12 123.153 108.12C124.033 108.12 124.849 108.264 125.601 108.552C126.369 108.84 127.025 109.256 127.569 109.8C128.113 110.344 128.537 110.992 128.841 111.744C129.145 112.48 129.297 113.288 129.297 114.168C129.297 115.032 129.145 115.84 128.841 116.592C128.537 117.328 128.113 117.968 127.569 118.512C127.025 119.04 126.369 119.456 125.601 119.76C124.849 120.048 124.033 120.192 123.153 120.192ZM123.153 117.744C124.113 117.744 124.921 117.408 125.577 116.736C126.233 116.064 126.561 115.208 126.561 114.168C126.561 113.112 126.233 112.248 125.577 111.576C124.937 110.888 124.129 110.544 123.153 110.544C122.145 110.544 121.321 110.896 120.681 111.6C120.057 112.288 119.745 113.144 119.745 114.168C119.745 115.176 120.065 116.024 120.705 116.712C121.345 117.4 122.161 117.744 123.153 117.744ZM140.808 102.336H143.472V120H140.904V118.44H140.856C139.96 119.608 138.696 120.192 137.064 120.192C136.28 120.192 135.536 120.048 134.832 119.76C134.128 119.472 133.52 119.064 133.008 118.536C132.496 118.008 132.096 117.376 131.808 116.64C131.52 115.888 131.376 115.072 131.376 114.192C131.376 113.344 131.52 112.544 131.808 111.792C132.096 111.04 132.496 110.392 133.008 109.848C133.52 109.304 134.12 108.88 134.808 108.576C135.512 108.272 136.256 108.12 137.04 108.12C137.792 108.12 138.488 108.256 139.128 108.528C139.784 108.8 140.328 109.192 140.76 109.704H140.808V102.336ZM137.472 117.744C137.824 117.744 138.192 117.688 138.576 117.576C138.96 117.464 139.32 117.272 139.656 117C140.008 116.712 140.304 116.336 140.544 115.872C140.784 115.408 140.904 114.856 140.904 114.216C140.904 113.16 140.584 112.288 139.944 111.6C139.304 110.896 138.488 110.544 137.496 110.544C136.92 110.544 136.36 110.696 135.816 111C135.272 111.288 134.848 111.728 134.544 112.32C134.256 112.896 134.112 113.528 134.112 114.216C134.112 115.24 134.424 116.088 135.048 116.76C135.688 117.416 136.496 117.744 137.472 117.744ZM155.571 108.288H158.259V120H155.691V118.44H155.643C155.227 119 154.699 119.432 154.059 119.736C153.419 120.04 152.707 120.192 151.923 120.192C151.139 120.192 150.395 120.048 149.691 119.76C148.987 119.472 148.379 119.064 147.867 118.536C147.355 118.008 146.955 117.376 146.667 116.64C146.395 115.888 146.259 115.072 146.259 114.192C146.259 113.344 146.395 112.544 146.667 111.792C146.955 111.04 147.355 110.392 147.867 109.848C148.379 109.304 148.979 108.88 149.667 108.576C150.371 108.272 151.115 108.12 151.899 108.12C152.635 108.12 153.315 108.256 153.939 108.528C154.563 108.8 155.091 109.192 155.523 109.704H155.571V108.288ZM152.355 117.744C153.283 117.744 154.067 117.416 154.707 116.76C155.363 116.088 155.691 115.24 155.691 114.216C155.691 113.848 155.635 113.456 155.523 113.04C155.411 112.624 155.219 112.232 154.947 111.864C154.675 111.496 154.323 111.184 153.891 110.928C153.459 110.672 152.947 110.544 152.355 110.544C151.779 110.544 151.219 110.696 150.675 111C150.131 111.288 149.715 111.728 149.427 112.32C149.139 112.896 148.995 113.528 148.995 114.216C148.995 115.24 149.307 116.088 149.931 116.76C150.555 117.416 151.363 117.744 152.355 117.744ZM169.45 108.288H172.258L165.826 124.752H162.994L165.106 119.328L160.354 108.288H163.186L166.426 116.208L169.45 108.288Z" fill="black"/>
<path d="M184.343 109.643L190 115.3L195.657 109.643L194.714 108.7L190 113.415L185.286 108.7L184.343 109.643Z" fill="#2B3A4B"/>
<path d="M132 161C132 163.209 130.209 165 128 165C125.791 165 124 163.209 124 161C124 158.791 125.791 157 128 157C130.209 157 132 158.791 132 161ZM125.232 161C125.232 162.529 126.471 163.768 128 163.768C129.529 163.768 130.768 162.529 130.768 161C130.768 159.471 129.529 158.232 128 158.232C126.471 158.232 125.232 159.471 125.232 161Z" fill="#2B3A4B"/>
<path d="M144.92 166.084C143.68 166.084 142.644 165.704 141.812 164.944C140.988 164.176 140.576 163.116 140.576 161.764C140.576 160.5 140.96 159.452 141.728 158.62C142.504 157.788 143.56 157.372 144.896 157.372C145.528 157.372 146.14 157.512 146.732 157.792C147.332 158.064 147.852 158.472 148.292 159.016L147.044 160.06C146.452 159.34 145.736 158.98 144.896 158.98C144.16 158.98 143.548 159.236 143.06 159.748C142.58 160.252 142.34 160.924 142.34 161.764C142.34 162.556 142.58 163.208 143.06 163.72C143.54 164.232 144.16 164.488 144.92 164.488C145.768 164.488 146.484 164.128 147.068 163.408L148.304 164.476C147.44 165.548 146.312 166.084 144.92 166.084ZM153.94 166.108C152.66 166.108 151.616 165.7 150.808 164.884C150 164.06 149.596 163.012 149.596 161.74C149.596 160.468 150 159.424 150.808 158.608C151.616 157.784 152.66 157.372 153.94 157.372C155.196 157.372 156.232 157.78 157.048 158.596C157.864 159.404 158.272 160.452 158.272 161.74C158.272 163.028 157.864 164.08 157.048 164.896C156.232 165.704 155.196 166.108 153.94 166.108ZM153.94 164.524C154.676 164.524 155.288 164.26 155.776 163.732C156.264 163.204 156.508 162.54 156.508 161.74C156.508 160.94 156.264 160.276 155.776 159.748C155.288 159.22 154.676 158.956 153.94 158.956C153.18 158.956 152.556 159.224 152.068 159.76C151.588 160.296 151.348 160.956 151.348 161.74C151.348 162.524 151.588 163.184 152.068 163.72C152.556 164.256 153.18 164.524 153.94 164.524ZM160.136 166V157.48H161.792L165.62 163.228H165.644V157.48H167.312V166H165.62L161.84 160.372H161.816V166H160.136ZM172.027 166L168.859 157.48H170.683L172.771 163.576H172.795L174.871 157.48H176.671L173.515 166H172.027ZM178.176 166V157.48H183.624V158.98H179.844V161.032H182.868V162.508H179.844V164.5H183.876V166H178.176ZM185.708 166V157.48H188.936C189.92 157.48 190.66 157.74 191.156 158.26C191.652 158.772 191.9 159.456 191.9 160.312C191.9 161.64 191.308 162.496 190.124 162.88L192.26 166H190.256L188.348 163.084H187.376V166H185.708ZM187.376 161.596H188.6C189.104 161.596 189.488 161.48 189.752 161.248C190.024 161.008 190.16 160.688 190.16 160.288C190.16 159.888 190.032 159.572 189.776 159.34C189.52 159.1 189.152 158.98 188.672 158.98H187.376V161.596ZM196.5 166.108C195.308 166.108 194.272 165.656 193.392 164.752L194.412 163.504C194.716 163.848 195.056 164.112 195.432 164.296C195.816 164.48 196.184 164.572 196.536 164.572C196.928 164.572 197.228 164.492 197.436 164.332C197.644 164.164 197.748 163.944 197.748 163.672C197.748 163.376 197.64 163.148 197.424 162.988C197.216 162.828 196.832 162.652 196.272 162.46C195.968 162.356 195.708 162.26 195.492 162.172C195.284 162.076 195.056 161.952 194.808 161.8C194.568 161.648 194.372 161.488 194.22 161.32C194.068 161.144 193.94 160.928 193.836 160.672C193.74 160.408 193.692 160.12 193.692 159.808C193.692 159.128 193.956 158.556 194.484 158.092C195.012 157.62 195.66 157.38 196.428 157.372C197.468 157.372 198.428 157.732 199.308 158.452L198.324 159.724C197.636 159.164 197.016 158.884 196.464 158.884C196.16 158.884 195.912 158.96 195.72 159.112C195.536 159.264 195.44 159.472 195.432 159.736C195.432 159.984 195.532 160.18 195.732 160.324C195.94 160.468 196.32 160.648 196.872 160.864C197.752 161.208 198.328 161.472 198.6 161.656C199.216 162.072 199.524 162.676 199.524 163.468C199.524 164.06 199.364 164.564 199.044 164.98C198.724 165.388 198.344 165.68 197.904 165.856C197.464 166.024 196.996 166.108 196.5 166.108ZM200.427 166L203.583 157.48H205.215L208.383 166H206.619L206.031 164.296H202.767L202.191 166H200.427ZM203.247 162.856H205.551L204.411 159.52H204.387L203.247 162.856ZM210.712 166V158.98H208.384V157.48H214.78V158.98H212.416V166H210.712ZM216.435 166V157.48H218.151V166H216.435ZM224.411 166.108C223.131 166.108 222.087 165.7 221.279 164.884C220.471 164.06 220.067 163.012 220.067 161.74C220.067 160.468 220.471 159.424 221.279 158.608C222.087 157.784 223.131 157.372 224.411 157.372C225.667 157.372 226.703 157.78 227.519 158.596C228.335 159.404 228.743 160.452 228.743 161.74C228.743 163.028 228.335 164.08 227.519 164.896C226.703 165.704 225.667 166.108 224.411 166.108ZM224.411 164.524C225.147 164.524 225.759 164.26 226.247 163.732C226.735 163.204 226.979 162.54 226.979 161.74C226.979 160.94 226.735 160.276 226.247 159.748C225.759 159.22 225.147 158.956 224.411 158.956C223.651 158.956 223.027 159.224 222.539 159.76C222.059 160.296 221.819 160.956 221.819 161.74C221.819 162.524 222.059 163.184 222.539 163.72C223.027 164.256 223.651 164.524 224.411 164.524ZM230.607 166V157.48H232.263L236.091 163.228H236.115V157.48H237.783V166H236.091L232.311 160.372H232.287V166H230.607ZM242.57 166.108C241.378 166.108 240.342 165.656 239.462 164.752L240.482 163.504C240.786 163.848 241.126 164.112 241.502 164.296C241.886 164.48 242.254 164.572 242.606 164.572C242.998 164.572 243.298 164.492 243.506 164.332C243.714 164.164 243.818 163.944 243.818 163.672C243.818 163.376 243.71 163.148 243.494 162.988C243.286 162.828 242.902 162.652 242.342 162.46C242.038 162.356 241.778 162.26 241.562 162.172C241.354 162.076 241.126 161.952 240.878 161.8C240.638 161.648 240.442 161.488 240.29 161.32C240.138 161.144 240.01 160.928 239.906 160.672C239.81 160.408 239.762 160.12 239.762 159.808C239.762 159.128 240.026 158.556 240.554 158.092C241.082 157.62 241.73 157.38 242.498 157.372C243.538 157.372 244.498 157.732 245.378 158.452L244.394 159.724C243.706 159.164 243.086 158.884 242.534 158.884C242.23 158.884 241.982 158.96 241.79 159.112C241.606 159.264 241.51 159.472 241.502 159.736C241.502 159.984 241.602 160.18 241.802 160.324C242.01 160.468 242.39 160.648 242.942 160.864C243.822 161.208 244.398 161.472 244.67 161.656C245.286 162.072 245.594 162.676 245.594 163.468C245.594 164.06 245.434 164.564 245.114 164.98C244.794 165.388 244.414 165.68 243.974 165.856C243.534 166.024 243.066 166.108 242.57 166.108Z" fill="#2B3A4B"/>
<circle cx="948" cy="150" r="4" fill="#5F41B2"/>
<path d="M963.146 146.797V155H964.277V146.797H967.072V145.77H960.39V146.797H963.146ZM970.132 155.078C972.004 155.078 973.395 153.765 973.395 151.841C973.395 149.917 972.004 148.591 970.132 148.591C968.169 148.591 966.856 150.021 966.856 151.841C966.856 153.661 968.169 155.078 970.132 155.078ZM970.132 154.116C968.819 154.116 967.935 153.102 967.935 151.841C967.935 150.58 968.806 149.553 970.132 149.553C971.354 149.553 972.316 150.489 972.316 151.841C972.316 153.193 971.341 154.116 970.132 154.116ZM977.657 155.078C978.684 155.078 979.49 154.597 979.945 153.83H979.958V155H980.972V145.432H979.919V149.8H979.906C979.425 149.033 978.606 148.591 977.644 148.591C975.863 148.591 974.55 150.008 974.55 151.88C974.55 153.804 975.902 155.078 977.657 155.078ZM977.8 154.116C976.513 154.116 975.629 153.154 975.629 151.88C975.629 150.476 976.604 149.553 977.813 149.553C979.087 149.553 979.958 150.58 979.958 151.88C979.958 153.219 978.996 154.116 977.8 154.116ZM985.603 155.078C986.63 155.078 987.41 154.61 987.865 153.856H987.878V155H988.892V148.669H987.839V149.787L987.813 149.8C987.358 149.033 986.539 148.591 985.603 148.591C983.809 148.591 982.522 150.008 982.522 151.88C982.522 153.804 983.861 155.078 985.603 155.078ZM985.759 154.116C984.459 154.116 983.588 153.154 983.588 151.88C983.588 150.476 984.563 149.553 985.759 149.553C987.007 149.553 987.878 150.58 987.878 151.88C987.878 153.219 986.929 154.116 985.759 154.116ZM992.773 154.753L991.642 157.574H992.734L996.322 148.669H995.217L993.306 153.479H993.28L991.226 148.669H990.082L992.773 154.753Z" fill="#0D0D12" fill-opacity="0.46"/>
<circle cx="948" cy="172" r="4" fill="#DADEE3"/>
<path d="M963.328 172.879V177H964.459V172.879L967.618 167.77H966.292L963.913 171.735H963.887L961.495 167.77H960.195L963.328 172.879ZM973.244 173.724C973.244 171.917 972.061 170.591 970.332 170.591C968.525 170.591 967.212 171.93 967.212 173.841C967.212 175.778 968.538 177.078 970.41 177.078C971.684 177.078 972.477 176.597 973.023 175.895L972.282 175.271C971.892 175.752 971.294 176.116 970.449 176.116C969.253 176.116 968.421 175.336 968.278 174.153H973.218C973.218 174.075 973.244 173.893 973.244 173.724ZM970.319 171.553C971.359 171.553 972.035 172.255 972.191 173.295H968.304C968.499 172.216 969.305 171.553 970.319 171.553ZM976.699 177.078C978.22 177.078 978.974 176.259 978.974 175.271C978.987 174.036 978.103 173.802 976.764 173.282C976.075 173.035 975.568 172.788 975.568 172.294C975.568 171.813 976.049 171.527 976.543 171.527C977.089 171.527 977.674 171.696 978.22 172.203L978.766 171.371C978.064 170.799 977.349 170.591 976.582 170.591C975.386 170.591 974.502 171.319 974.502 172.294C974.502 173.451 975.373 173.867 976.4 174.231C977.323 174.569 977.908 174.725 977.908 175.284C977.908 175.765 977.466 176.142 976.699 176.142C975.815 176.142 975.256 175.856 974.762 175.375L974.229 176.181C974.84 176.714 975.646 177.078 976.699 177.078ZM982.244 177.078C982.998 177.078 983.427 176.896 983.778 176.688L983.505 175.765C983.193 175.934 982.803 176.09 982.426 176.09C981.828 176.09 981.659 175.726 981.659 174.959V171.579H983.752V170.669H981.659V168.394L980.606 168.511V170.669H979.787V171.579H980.606V175.115C980.606 176.389 981.126 177.078 982.244 177.078ZM990.484 173.724C990.484 171.917 989.301 170.591 987.572 170.591C985.765 170.591 984.452 171.93 984.452 173.841C984.452 175.778 985.778 177.078 987.65 177.078C988.924 177.078 989.717 176.597 990.263 175.895L989.522 175.271C989.132 175.752 988.534 176.116 987.689 176.116C986.493 176.116 985.661 175.336 985.518 174.153H990.458C990.458 174.075 990.484 173.893 990.484 173.724ZM987.559 171.553C988.599 171.553 989.275 172.255 989.431 173.295H985.544C985.739 172.216 986.545 171.553 987.559 171.553ZM992.028 170.669V177H993.081V173.945C993.081 172.671 993.796 171.748 995.005 171.748C995.109 171.748 995.265 171.761 995.421 171.774V170.604C995.33 170.591 995.252 170.591 995.161 170.591C994.29 170.591 993.562 171.059 993.107 171.826H993.081V170.669H992.028ZM999.112 177.078C1000.14 177.078 1000.94 176.597 1001.4 175.83H1001.41V177H1002.43V167.432H1001.37V171.8H1001.36C1000.88 171.033 1000.06 170.591 999.099 170.591C997.318 170.591 996.005 172.008 996.005 173.88C996.005 175.804 997.357 177.078 999.112 177.078ZM999.255 176.116C997.968 176.116 997.084 175.154 997.084 173.88C997.084 172.476 998.059 171.553 999.268 171.553C1000.54 171.553 1001.41 172.58 1001.41 173.88C1001.41 175.219 1000.45 176.116 999.255 176.116ZM1007.06 177.078C1008.09 177.078 1008.87 176.61 1009.32 175.856H1009.33V177H1010.35V170.669H1009.29V171.787L1009.27 171.8C1008.81 171.033 1007.99 170.591 1007.06 170.591C1005.26 170.591 1003.98 172.008 1003.98 173.88C1003.98 175.804 1005.32 177.078 1007.06 177.078ZM1007.21 176.116C1005.91 176.116 1005.04 175.154 1005.04 173.88C1005.04 172.476 1006.02 171.553 1007.21 171.553C1008.46 171.553 1009.33 172.58 1009.33 173.88C1009.33 175.219 1008.38 176.116 1007.21 176.116ZM1014.23 176.753L1013.1 179.574H1014.19L1017.78 170.669H1016.67L1014.76 175.479H1014.73L1012.68 170.669H1011.54L1014.23 176.753Z" fill="#0D0D12" fill-opacity="0.46"/>
<path d="M109.06 346.45L119 346.45L119 345.232L111.174 345.232L111.174 345.204L119 339.646L119 338.4L109.06 338.4L109.06 339.618L116.97 339.618L116.97 339.632L109.06 345.246L109.06 346.45ZM119.084 333.01C119.084 330.994 117.67 329.496 115.598 329.496C113.526 329.496 112.098 330.994 112.098 333.01C112.098 335.124 113.638 336.538 115.598 336.538C117.558 336.538 119.084 335.124 119.084 333.01ZM118.048 333.01C118.048 334.424 116.956 335.376 115.598 335.376C114.24 335.376 113.134 334.438 113.134 333.01C113.134 331.694 114.142 330.658 115.598 330.658C117.054 330.658 118.048 331.708 118.048 333.01ZM119.084 320.897C119.084 318.881 117.67 317.383 115.598 317.383C113.526 317.383 112.098 318.881 112.098 320.897C112.098 323.011 113.638 324.425 115.598 324.425C117.558 324.425 119.084 323.011 119.084 320.897ZM118.048 320.897C118.048 322.311 116.956 323.263 115.598 323.263C114.24 323.263 113.134 322.325 113.134 320.897C113.134 319.581 114.142 318.545 115.598 318.545C117.054 318.545 118.048 319.595 118.048 320.897ZM113.162 315.439L119 315.439L119 314.305L113.162 314.305L113.162 312.373L112.182 312.373L112.182 314.305L110.908 314.305C110.012 314.305 109.648 313.941 109.648 313.381C109.648 313.003 109.788 312.625 110.012 312.191L109.046 311.939C108.808 312.317 108.598 312.835 108.598 313.521C108.598 314.739 109.34 315.439 110.796 315.439L112.182 315.439L112.182 316.265L113.162 316.265L113.162 315.439ZM119.084 304.288C119.084 302.958 118.58 302.048 117.894 301.474L117.18 302.258C117.698 302.678 118.048 303.392 118.048 304.204C118.048 305.59 117.054 306.528 115.598 306.528C114.156 306.528 113.134 305.59 113.134 304.19C113.134 303.378 113.498 302.706 114.002 302.272L113.316 301.502C112.518 302.174 112.098 303.224 112.098 304.246C112.098 306.276 113.54 307.69 115.598 307.69C117.67 307.69 119.084 306.276 119.084 304.288ZM119.084 296.862C119.084 294.846 117.67 293.348 115.598 293.348C113.526 293.348 112.098 294.846 112.098 296.862C112.098 298.976 113.638 300.39 115.598 300.39C117.558 300.39 119.084 298.976 119.084 296.862ZM118.048 296.862C118.048 298.276 116.956 299.228 115.598 299.228C114.24 299.228 113.134 298.29 113.134 296.862C113.134 295.546 114.142 294.51 115.598 294.51C117.054 294.51 118.048 295.56 118.048 296.862ZM112.182 291.657L119 291.657L119 290.523L115.598 290.523C114.058 290.523 113.134 289.683 113.134 288.395C113.134 287.401 113.68 286.715 115.276 286.715L119 286.715L119 285.581L114.954 285.581C113.008 285.581 112.098 286.561 112.098 288.031C112.098 289.081 112.588 289.977 113.414 290.509L113.414 290.523L112.182 290.523L112.182 291.657ZM112.182 284.537L119 281.765L119 280.673L112.182 277.901L112.182 279.119L117.558 281.205L117.558 281.219L112.182 283.305L112.182 284.537ZM115.472 270.856C113.526 270.856 112.098 272.13 112.098 273.992C112.098 275.938 113.54 277.352 115.598 277.352C117.684 277.352 119.084 275.924 119.084 273.908C119.084 272.536 118.566 271.682 117.81 271.094L117.138 271.892C117.656 272.312 118.048 272.956 118.048 273.866C118.048 275.154 117.208 276.05 115.934 276.204L115.934 270.884C115.85 270.884 115.654 270.856 115.472 270.856ZM113.134 274.006C113.134 272.886 113.89 272.158 115.01 271.99L115.01 276.176C113.848 275.966 113.134 275.098 113.134 274.006ZM112.182 269.194L119 269.194L119 268.06L115.71 268.06C114.338 268.06 113.344 267.29 113.344 265.988C113.344 265.876 113.358 265.708 113.372 265.54L112.112 265.54C112.098 265.638 112.098 265.722 112.098 265.82C112.098 266.758 112.602 267.542 113.428 268.032L113.428 268.06L112.182 268.06L112.182 269.194ZM119.084 262.2C119.084 260.562 118.202 259.75 117.138 259.75C115.808 259.736 115.556 260.688 114.996 262.13C114.73 262.872 114.464 263.418 113.932 263.418C113.414 263.418 113.106 262.9 113.106 262.368C113.106 261.78 113.288 261.15 113.834 260.562L112.938 259.974C112.322 260.73 112.098 261.5 112.098 262.326C112.098 263.614 112.882 264.566 113.932 264.566C115.178 264.566 115.626 263.628 116.018 262.522C116.382 261.528 116.55 260.898 117.152 260.898C117.67 260.898 118.076 261.374 118.076 262.2C118.076 263.152 117.768 263.754 117.25 264.286L118.118 264.86C118.692 264.202 119.084 263.334 119.084 262.2ZM119.084 255.441C119.084 254.335 118.58 253.495 117.768 253.005L117.768 252.991L119 252.991L119 251.899L112.182 251.899L112.182 253.033L113.386 253.033L113.4 253.061C112.574 253.551 112.098 254.433 112.098 255.441C112.098 257.373 113.624 258.759 115.64 258.759C117.712 258.759 119.084 257.317 119.084 255.441ZM118.048 255.273C118.048 256.673 117.012 257.611 115.64 257.611C114.128 257.611 113.134 256.561 113.134 255.273C113.134 253.929 114.24 252.991 115.64 252.991C117.082 252.991 118.048 254.013 118.048 255.273ZM119.084 247.944C119.084 247.132 118.888 246.67 118.664 246.292L117.67 246.586C117.852 246.922 118.02 247.342 118.02 247.748C118.02 248.392 117.628 248.574 116.802 248.574L113.162 248.574L113.162 246.32L112.182 246.32L112.182 248.574L109.732 248.574L109.858 249.708L112.182 249.708L112.182 250.59L113.162 250.59L113.162 249.708L116.97 249.708C118.342 249.708 119.084 249.148 119.084 247.944ZM110.936 244.186C110.936 243.724 110.572 243.36 110.124 243.36C109.676 243.36 109.312 243.724 109.312 244.186C109.312 244.648 109.676 245.012 110.124 245.012C110.572 245.012 110.936 244.648 110.936 244.186ZM112.182 244.76L119 244.76L119 243.626L112.182 243.626L112.182 244.76ZM119.084 238.319C119.084 236.303 117.67 234.805 115.598 234.805C113.526 234.805 112.098 236.303 112.098 238.319C112.098 240.433 113.638 241.847 115.598 241.847C117.558 241.847 119.084 240.433 119.084 238.319ZM118.048 238.319C118.048 239.733 116.956 240.685 115.598 240.685C114.24 240.685 113.134 239.747 113.134 238.319C113.134 237.003 114.142 235.967 115.598 235.967C117.054 235.967 118.048 237.017 118.048 238.319ZM112.182 233.114L119 233.114L119 231.98L115.598 231.98C114.058 231.98 113.134 231.14 113.134 229.852C113.134 228.858 113.68 228.172 115.276 228.172L119 228.172L119 227.038L114.954 227.038C113.008 227.038 112.098 228.018 112.098 229.488C112.098 230.538 112.588 231.434 113.414 231.966L113.414 231.98L112.182 231.98L112.182 233.114ZM119.084 222.989C119.084 221.351 118.202 220.539 117.138 220.539C115.808 220.525 115.556 221.477 114.996 222.919C114.73 223.661 114.464 224.207 113.932 224.207C113.414 224.207 113.106 223.689 113.106 223.157C113.106 222.569 113.288 221.939 113.834 221.351L112.938 220.763C112.322 221.519 112.098 222.289 112.098 223.115C112.098 224.403 112.882 225.355 113.932 225.355C115.178 225.355 115.626 224.417 116.018 223.311C116.382 222.317 116.55 221.687 117.152 221.687C117.67 221.687 118.076 222.163 118.076 222.989C118.076 223.941 117.768 224.543 117.25 225.075L118.118 225.649C118.692 224.991 119.084 224.123 119.084 222.989Z" fill="#0D0D12" fill-opacity="0.46"/>
<path d="M138.349 218.578C140 218.578 141.235 217.59 141.235 216.108C141.235 215.042 140.637 214.236 139.688 213.872V213.833C140.533 213.469 141.001 212.663 141.001 211.831C141.001 210.349 139.779 209.491 138.258 209.491C136.971 209.491 136.061 210.089 135.593 210.908L136.477 211.402C136.828 210.882 137.348 210.505 138.232 210.505C139.168 210.505 139.896 211.09 139.896 211.974C139.896 212.689 139.428 213.404 138.284 213.404H137.413V214.34H138.154C139.48 214.34 140.117 215.094 140.117 215.952C140.117 216.927 139.311 217.564 138.271 217.564C137.231 217.564 136.555 217.096 136.243 216.381L135.294 216.81C135.736 217.837 136.828 218.578 138.349 218.578ZM145.944 218.578C148.076 218.578 149.298 216.68 149.298 214.041C149.298 211.116 147.881 209.491 145.944 209.491C143.825 209.491 142.59 211.389 142.59 214.041C142.59 216.953 144.007 218.578 145.944 218.578ZM145.944 217.564C144.631 217.564 143.708 216.303 143.708 214.041C143.708 211.896 144.527 210.505 145.944 210.505C147.27 210.505 148.18 211.766 148.18 214.041C148.18 216.173 147.374 217.564 145.944 217.564Z" fill="#858C94"/>
<path fill-rule="evenodd" clip-rule="evenodd" d="M1019 214H158V213H1019V214Z" fill="#1C1854" fill-opacity="0.08"/>
<path d="M135.666 252.746L135.679 253.5H141.295V252.499H137.343L137.33 252.46L139.657 250.12C140.762 249.002 141.191 248.131 141.191 247.13C141.191 245.479 139.891 244.504 138.461 244.504C137.07 244.504 136.173 245.206 135.679 246.194L136.485 246.753C136.901 245.947 137.551 245.531 138.396 245.531C139.384 245.531 140.073 246.259 140.073 247.247C140.073 248.131 139.475 248.846 138.721 249.626L135.666 252.746ZM145.944 253.578C148.076 253.578 149.298 251.68 149.298 249.041C149.298 246.116 147.881 244.491 145.944 244.491C143.825 244.491 142.59 246.389 142.59 249.041C142.59 251.953 144.007 253.578 145.944 253.578ZM145.944 252.564C144.631 252.564 143.708 251.303 143.708 249.041C143.708 246.896 144.527 245.505 145.944 245.505C147.27 245.505 148.18 246.766 148.18 249.041C148.18 251.173 147.374 252.564 145.944 252.564Z" fill="#858C94"/>
<path fill-rule="evenodd" clip-rule="evenodd" d="M1019 249H158V248H1019V249Z" fill="#1C1854" fill-opacity="0.08"/>
<path d="M139.625 280.882V288.5H140.717V279.569H139.807L137.311 281.415L137.844 282.234L139.625 280.882ZM145.944 288.578C148.076 288.578 149.298 286.68 149.298 284.041C149.298 281.116 147.881 279.491 145.944 279.491C143.825 279.491 142.59 281.389 142.59 284.041C142.59 286.953 144.007 288.578 145.944 288.578ZM145.944 287.564C144.631 287.564 143.708 286.303 143.708 284.041C143.708 281.896 144.527 280.505 145.944 280.505C147.27 280.505 148.18 281.766 148.18 284.041C148.18 286.173 147.374 287.564 145.944 287.564Z" fill="#858C94"/>
<path fill-rule="evenodd" clip-rule="evenodd" d="M1019 284H158V283H1019V284Z" fill="#1C1854" fill-opacity="0.08"/>
<path d="M146.405 313.764C145.373 313.764 144.605 314.208 144.089 315.12C143.633 315.888 143.405 316.92 143.405 318.216C143.405 319.512 143.633 320.544 144.089 321.312C144.605 322.212 145.373 322.668 146.405 322.668C147.425 322.668 148.193 322.212 148.721 321.312C149.177 320.544 149.405 319.512 149.405 318.216C149.405 316.92 149.177 315.888 148.721 315.12C148.193 314.208 147.425 313.764 146.405 313.764ZM146.405 314.604C147.173 314.604 147.725 315.012 148.061 315.84C148.301 316.416 148.433 317.208 148.433 318.216C148.433 319.212 148.301 320.004 148.061 320.592C147.725 321.408 147.173 321.828 146.405 321.828C145.637 321.828 145.085 321.408 144.749 320.592C144.509 320.004 144.389 319.212 144.389 318.216C144.389 317.208 144.509 316.416 144.749 315.84C145.085 315.012 145.637 314.604 146.405 314.604Z" fill="#0D0D12" fill-opacity="0.46"/>
<path fill-rule="evenodd" clip-rule="evenodd" d="M1019 319H158V318H1019V319Z" fill="#1C1854" fill-opacity="0.08"/>
<path d="M160.82 333.382V341H161.912V332.069H161.002L158.506 333.915L159.039 334.734L160.82 333.382ZM167.139 341.078C169.271 341.078 170.493 339.18 170.493 336.541C170.493 333.616 169.076 331.991 167.139 331.991C165.02 331.991 163.785 333.889 163.785 336.541C163.785 339.453 165.202 341.078 167.139 341.078ZM167.139 340.064C165.826 340.064 164.903 338.803 164.903 336.541C164.903 334.396 165.722 333.005 167.139 333.005C168.465 333.005 169.375 334.266 169.375 336.541C169.375 338.673 168.569 340.064 167.139 340.064ZM172.677 336.125C173.106 336.125 173.444 335.787 173.444 335.358C173.444 334.929 173.106 334.591 172.677 334.591C172.248 334.591 171.897 334.929 171.897 335.358C171.897 335.787 172.248 336.125 172.677 336.125ZM172.677 341.091C173.106 341.091 173.444 340.753 173.444 340.324C173.444 339.895 173.106 339.557 172.677 339.557C172.248 339.557 171.897 339.895 171.897 340.324C171.897 340.753 172.248 341.091 172.677 341.091ZM174.71 340.246L174.723 341H180.339V339.999H176.387L176.374 339.96L178.701 337.62C179.806 336.502 180.235 335.631 180.235 334.63C180.235 332.979 178.935 332.004 177.505 332.004C176.114 332.004 175.217 332.706 174.723 333.694L175.529 334.253C175.945 333.447 176.595 333.031 177.44 333.031C178.428 333.031 179.117 333.759 179.117 334.747C179.117 335.631 178.519 336.346 177.765 337.126L174.71 340.246ZM184.326 341.078C185.977 341.078 187.212 340.09 187.212 338.608C187.212 337.542 186.614 336.736 185.665 336.372V336.333C186.51 335.969 186.978 335.163 186.978 334.331C186.978 332.849 185.756 331.991 184.235 331.991C182.948 331.991 182.038 332.589 181.57 333.408L182.454 333.902C182.805 333.382 183.325 333.005 184.209 333.005C185.145 333.005 185.873 333.59 185.873 334.474C185.873 335.189 185.405 335.904 184.261 335.904H183.39V336.84H184.131C185.457 336.84 186.094 337.594 186.094 338.452C186.094 339.427 185.288 340.064 184.248 340.064C183.208 340.064 182.532 339.596 182.22 338.881L181.271 339.31C181.713 340.337 182.805 341.078 184.326 341.078ZM192.55 331.77V341H193.681V337.477H195.579C197.503 337.477 198.829 336.58 198.829 334.63C198.829 332.992 197.932 331.77 195.774 331.77H192.55ZM195.475 336.45H193.681V332.797H195.657C196.892 332.797 197.659 333.421 197.659 334.604C197.659 335.67 197.009 336.45 195.475 336.45ZM200.523 331.77V341H201.667V333.967H201.68L204.683 339.141H205.45L208.453 333.967H208.479V341H209.61V331.77H208.479L205.086 337.737H205.06L201.667 331.77H200.523ZM173.096 351.382V359H174.188V350.069H173.278L170.782 351.915L171.315 352.734L173.096 351.382ZM179.415 359.078C181.547 359.078 182.769 357.18 182.769 354.541C182.769 351.616 181.352 349.991 179.415 349.991C177.296 349.991 176.061 351.889 176.061 354.541C176.061 357.453 177.478 359.078 179.415 359.078ZM179.415 358.064C178.102 358.064 177.179 356.803 177.179 354.541C177.179 352.396 177.998 351.005 179.415 351.005C180.741 351.005 181.651 352.266 181.651 354.541C181.651 356.673 180.845 358.064 179.415 358.064ZM183.134 360.079L183.979 360.469L188.971 349.393L188.139 348.99L183.134 360.079ZM191.378 351.382V359H192.47V350.069H191.56L189.064 351.915L189.597 352.734L191.378 351.382ZM196.215 351.382V359H197.307V350.069H196.397L193.901 351.915L194.434 352.734L196.215 351.382Z" fill="#858C94"/>
<path d="M262.241 333.382V341H263.333V332.069H262.423L259.927 333.915L260.46 334.734L262.241 333.382ZM268.559 341.078C270.691 341.078 271.913 339.18 271.913 336.541C271.913 333.616 270.496 331.991 268.559 331.991C266.44 331.991 265.205 333.889 265.205 336.541C265.205 339.453 266.622 341.078 268.559 341.078ZM268.559 340.064C267.246 340.064 266.323 338.803 266.323 336.541C266.323 334.396 267.142 333.005 268.559 333.005C269.885 333.005 270.795 334.266 270.795 336.541C270.795 338.673 269.989 340.064 268.559 340.064ZM274.098 336.125C274.527 336.125 274.865 335.787 274.865 335.358C274.865 334.929 274.527 334.591 274.098 334.591C273.669 334.591 273.318 334.929 273.318 335.358C273.318 335.787 273.669 336.125 274.098 336.125ZM274.098 341.091C274.527 341.091 274.865 340.753 274.865 340.324C274.865 339.895 274.527 339.557 274.098 339.557C273.669 339.557 273.318 339.895 273.318 340.324C273.318 340.753 273.669 341.091 274.098 341.091ZM279.043 341.078C280.694 341.078 281.929 340.09 281.929 338.608C281.929 337.542 281.331 336.736 280.382 336.372V336.333C281.227 335.969 281.695 335.163 281.695 334.331C281.695 332.849 280.473 331.991 278.952 331.991C277.665 331.991 276.755 332.589 276.287 333.408L277.171 333.902C277.522 333.382 278.042 333.005 278.926 333.005C279.862 333.005 280.59 333.59 280.59 334.474C280.59 335.189 280.122 335.904 278.978 335.904H278.107V336.84H278.848C280.174 336.84 280.811 337.594 280.811 338.452C280.811 339.427 280.005 340.064 278.965 340.064C277.925 340.064 277.249 339.596 276.937 338.881L275.988 339.31C276.43 340.337 277.522 341.078 279.043 341.078ZM286.638 341.078C288.77 341.078 289.992 339.18 289.992 336.541C289.992 333.616 288.575 331.991 286.638 331.991C284.519 331.991 283.284 333.889 283.284 336.541C283.284 339.453 284.701 341.078 286.638 341.078ZM286.638 340.064C285.325 340.064 284.402 338.803 284.402 336.541C284.402 334.396 285.221 333.005 286.638 333.005C287.964 333.005 288.874 334.266 288.874 336.541C288.874 338.673 288.068 340.064 286.638 340.064ZM295.38 331.77V341H296.511V337.477H298.409C300.333 337.477 301.659 336.58 301.659 334.63C301.659 332.992 300.762 331.77 298.604 331.77H295.38ZM298.305 336.45H296.511V332.797H298.487C299.722 332.797 300.489 333.421 300.489 334.604C300.489 335.67 299.839 336.45 298.305 336.45ZM303.352 331.77V341H304.496V333.967H304.509L307.512 339.141H308.279L311.282 333.967H311.308V341H312.439V331.77H311.308L307.915 337.737H307.889L304.496 331.77H303.352ZM275.221 351.382V359H276.313V350.069H275.403L272.907 351.915L273.44 352.734L275.221 351.382ZM281.54 359.078C283.672 359.078 284.894 357.18 284.894 354.541C284.894 351.616 283.477 349.991 281.54 349.991C279.421 349.991 278.186 351.889 278.186 354.541C278.186 357.453 279.603 359.078 281.54 359.078ZM281.54 358.064C280.227 358.064 279.304 356.803 279.304 354.541C279.304 352.396 280.123 351.005 281.54 351.005C282.866 351.005 283.776 352.266 283.776 354.541C283.776 356.673 282.97 358.064 281.54 358.064ZM285.259 360.079L286.104 360.469L291.096 349.393L290.264 348.99L285.259 360.079ZM293.503 351.382V359H294.595V350.069H293.685L291.189 351.915L291.722 352.734L293.503 351.382ZM298.34 351.382V359H299.432V350.069H298.522L296.026 351.915L296.559 352.734L298.34 351.382Z" fill="#858C94"/>
<path d="M365.169 333.382V341H366.261V332.069H365.351L362.855 333.915L363.388 334.734L365.169 333.382ZM371.488 341.078C373.62 341.078 374.842 339.18 374.842 336.541C374.842 333.616 373.425 331.991 371.488 331.991C369.369 331.991 368.134 333.889 368.134 336.541C368.134 339.453 369.551 341.078 371.488 341.078ZM371.488 340.064C370.175 340.064 369.252 338.803 369.252 336.541C369.252 334.396 370.071 333.005 371.488 333.005C372.814 333.005 373.724 334.266 373.724 336.541C373.724 338.673 372.918 340.064 371.488 340.064ZM377.026 336.125C377.455 336.125 377.793 335.787 377.793 335.358C377.793 334.929 377.455 334.591 377.026 334.591C376.597 334.591 376.246 334.929 376.246 335.358C376.246 335.787 376.597 336.125 377.026 336.125ZM377.026 341.091C377.455 341.091 377.793 340.753 377.793 340.324C377.793 339.895 377.455 339.557 377.026 339.557C376.597 339.557 376.246 339.895 376.246 340.324C376.246 340.753 376.597 341.091 377.026 341.091ZM383.102 339.427V341H384.194V339.427H385.494V338.439H384.194V332.069H383.271L378.955 338.647V339.427H383.102ZM383.141 338.465H380.229L383.141 333.928V338.465ZM389.959 341.078C392.091 341.078 393.313 339.18 393.313 336.541C393.313 333.616 391.896 331.991 389.959 331.991C387.84 331.991 386.605 333.889 386.605 336.541C386.605 339.453 388.022 341.078 389.959 341.078ZM389.959 340.064C388.646 340.064 387.723 338.803 387.723 336.541C387.723 334.396 388.542 333.005 389.959 333.005C391.285 333.005 392.195 334.266 392.195 336.541C392.195 338.673 391.389 340.064 389.959 340.064ZM398.702 331.77V341H399.833V337.477H401.731C403.655 337.477 404.981 336.58 404.981 334.63C404.981 332.992 404.084 331.77 401.926 331.77H398.702ZM401.627 336.45H399.833V332.797H401.809C403.044 332.797 403.811 333.421 403.811 334.604C403.811 335.67 403.161 336.45 401.627 336.45ZM406.674 331.77V341H407.818V333.967H407.831L410.834 339.141H411.601L414.604 333.967H414.63V341H415.761V331.77H414.63L411.237 337.737H411.211L407.818 331.77H406.674ZM378.346 351.382V359H379.438V350.069H378.528L376.032 351.915L376.565 352.734L378.346 351.382ZM384.665 359.078C386.797 359.078 388.019 357.18 388.019 354.541C388.019 351.616 386.602 349.991 384.665 349.991C382.546 349.991 381.311 351.889 381.311 354.541C381.311 357.453 382.728 359.078 384.665 359.078ZM384.665 358.064C383.352 358.064 382.429 356.803 382.429 354.541C382.429 352.396 383.248 351.005 384.665 351.005C385.991 351.005 386.901 352.266 386.901 354.541C386.901 356.673 386.095 358.064 384.665 358.064ZM388.384 360.079L389.229 360.469L394.221 349.393L393.389 348.99L388.384 360.079ZM396.628 351.382V359H397.72V350.069H396.81L394.314 351.915L394.847 352.734L396.628 351.382ZM401.465 351.382V359H402.557V350.069H401.647L399.151 351.915L399.684 352.734L401.465 351.382Z" fill="#858C94"/>
<path d="M468.908 333.382V341H470V332.069H469.09L466.594 333.915L467.127 334.734L468.908 333.382ZM475.227 341.078C477.359 341.078 478.581 339.18 478.581 336.541C478.581 333.616 477.164 331.991 475.227 331.991C473.108 331.991 471.873 333.889 471.873 336.541C471.873 339.453 473.29 341.078 475.227 341.078ZM475.227 340.064C473.914 340.064 472.991 338.803 472.991 336.541C472.991 334.396 473.81 333.005 475.227 333.005C476.553 333.005 477.463 334.266 477.463 336.541C477.463 338.673 476.657 340.064 475.227 340.064ZM480.765 336.125C481.194 336.125 481.532 335.787 481.532 335.358C481.532 334.929 481.194 334.591 480.765 334.591C480.336 334.591 479.985 334.929 479.985 335.358C479.985 335.787 480.336 336.125 480.765 336.125ZM480.765 341.091C481.194 341.091 481.532 340.753 481.532 340.324C481.532 339.895 481.194 339.557 480.765 339.557C480.336 339.557 479.985 339.895 479.985 340.324C479.985 340.753 480.336 341.091 480.765 341.091ZM485.996 335.332C485.632 335.332 485.099 335.423 484.631 335.592L484.774 333.083H488.466V332.069H483.747L483.487 336.58L484.124 336.775C484.579 336.424 485.112 336.281 485.697 336.281C486.789 336.281 487.764 336.957 487.764 338.166C487.764 339.271 486.932 340.064 485.684 340.064C484.774 340.064 484.02 339.635 483.617 338.985L482.798 339.596C483.422 340.532 484.54 341.078 485.775 341.078C487.582 341.078 488.882 339.908 488.882 338.179C488.882 336.385 487.582 335.332 485.996 335.332ZM493.47 341.078C495.602 341.078 496.824 339.18 496.824 336.541C496.824 333.616 495.407 331.991 493.47 331.991C491.351 331.991 490.116 333.889 490.116 336.541C490.116 339.453 491.533 341.078 493.47 341.078ZM493.47 340.064C492.157 340.064 491.234 338.803 491.234 336.541C491.234 334.396 492.053 333.005 493.47 333.005C494.796 333.005 495.706 334.266 495.706 336.541C495.706 338.673 494.9 340.064 493.47 340.064ZM502.212 331.77V341H503.343V337.477H505.241C507.165 337.477 508.491 336.58 508.491 334.63C508.491 332.992 507.594 331.77 505.436 331.77H502.212ZM505.137 336.45H503.343V332.797H505.319C506.554 332.797 507.321 333.421 507.321 334.604C507.321 335.67 506.671 336.45 505.137 336.45ZM510.185 331.77V341H511.329V333.967H511.342L514.345 339.141H515.112L518.115 333.967H518.141V341H519.272V331.77H518.141L514.748 337.737H514.722L511.329 331.77H510.185ZM481.971 351.382V359H483.063V350.069H482.153L479.657 351.915L480.19 352.734L481.971 351.382ZM488.29 359.078C490.422 359.078 491.644 357.18 491.644 354.541C491.644 351.616 490.227 349.991 488.29 349.991C486.171 349.991 484.936 351.889 484.936 354.541C484.936 357.453 486.353 359.078 488.29 359.078ZM488.29 358.064C486.977 358.064 486.054 356.803 486.054 354.541C486.054 352.396 486.873 351.005 488.29 351.005C489.616 351.005 490.526 352.266 490.526 354.541C490.526 356.673 489.72 358.064 488.29 358.064ZM492.009 360.079L492.854 360.469L497.846 349.393L497.014 348.99L492.009 360.079ZM500.253 351.382V359H501.345V350.069H500.435L497.939 351.915L498.472 352.734L500.253 351.382ZM505.09 351.382V359H506.182V350.069H505.272L502.776 351.915L503.309 352.734L505.09 351.382Z" fill="#858C94"/>
<path d="M572.163 333.382V341H573.255V332.069H572.345L569.849 333.915L570.382 334.734L572.163 333.382ZM577 333.382V341H578.092V332.069H577.182L574.686 333.915L575.219 334.734L577 333.382ZM580.745 336.125C581.174 336.125 581.512 335.787 581.512 335.358C581.512 334.929 581.174 334.591 580.745 334.591C580.316 334.591 579.965 334.929 579.965 335.358C579.965 335.787 580.316 336.125 580.745 336.125ZM580.745 341.091C581.174 341.091 581.512 340.753 581.512 340.324C581.512 339.895 581.174 339.557 580.745 339.557C580.316 339.557 579.965 339.895 579.965 340.324C579.965 340.753 580.316 341.091 580.745 341.091ZM586.353 341.078C588.485 341.078 589.707 339.18 589.707 336.541C589.707 333.616 588.29 331.991 586.353 331.991C584.234 331.991 582.999 333.889 582.999 336.541C582.999 339.453 584.416 341.078 586.353 341.078ZM586.353 340.064C585.04 340.064 584.117 338.803 584.117 336.541C584.117 334.396 584.936 333.005 586.353 333.005C587.679 333.005 588.589 334.266 588.589 336.541C588.589 338.673 587.783 340.064 586.353 340.064ZM594.465 341.078C596.597 341.078 597.819 339.18 597.819 336.541C597.819 333.616 596.402 331.991 594.465 331.991C592.346 331.991 591.111 333.889 591.111 336.541C591.111 339.453 592.528 341.078 594.465 341.078ZM594.465 340.064C593.152 340.064 592.229 338.803 592.229 336.541C592.229 334.396 593.048 333.005 594.465 333.005C595.791 333.005 596.701 334.266 596.701 336.541C596.701 338.673 595.895 340.064 594.465 340.064ZM603.207 331.77V341H604.338V337.477H606.236C608.16 337.477 609.486 336.58 609.486 334.63C609.486 332.992 608.589 331.77 606.431 331.77H603.207ZM606.132 336.45H604.338V332.797H606.314C607.549 332.797 608.316 333.421 608.316 334.604C608.316 335.67 607.666 336.45 606.132 336.45ZM611.18 331.77V341H612.324V333.967H612.337L615.34 339.141H616.107L619.11 333.967H619.136V341H620.267V331.77H619.136L615.743 337.737H615.717L612.324 331.77H611.18ZM584.096 351.382V359H585.188V350.069H584.278L581.782 351.915L582.315 352.734L584.096 351.382ZM590.415 359.078C592.547 359.078 593.769 357.18 593.769 354.541C593.769 351.616 592.352 349.991 590.415 349.991C588.296 349.991 587.061 351.889 587.061 354.541C587.061 357.453 588.478 359.078 590.415 359.078ZM590.415 358.064C589.102 358.064 588.179 356.803 588.179 354.541C588.179 352.396 588.998 351.005 590.415 351.005C591.741 351.005 592.651 352.266 592.651 354.541C592.651 356.673 591.845 358.064 590.415 358.064ZM594.134 360.079L594.979 360.469L599.971 349.393L599.139 348.99L594.134 360.079ZM602.378 351.382V359H603.47V350.069H602.56L600.064 351.915L600.597 352.734L602.378 351.382ZM607.215 351.382V359H608.307V350.069H607.397L604.901 351.915L605.434 352.734L607.215 351.382Z" fill="#858C94"/>
<path d="M672.926 333.382V341H674.018V332.069H673.108L670.612 333.915L671.145 334.734L672.926 333.382ZM677.762 333.382V341H678.854V332.069H677.944L675.448 333.915L675.981 334.734L677.762 333.382ZM681.507 336.125C681.936 336.125 682.274 335.787 682.274 335.358C682.274 334.929 681.936 334.591 681.507 334.591C681.078 334.591 680.727 334.929 680.727 335.358C680.727 335.787 681.078 336.125 681.507 336.125ZM681.507 341.091C681.936 341.091 682.274 340.753 682.274 340.324C682.274 339.895 681.936 339.557 681.507 339.557C681.078 339.557 680.727 339.895 680.727 340.324C680.727 340.753 681.078 341.091 681.507 341.091ZM685.634 333.382V341H686.726V332.069H685.816L683.32 333.915L683.853 334.734L685.634 333.382ZM691.952 341.078C694.084 341.078 695.306 339.18 695.306 336.541C695.306 333.616 693.889 331.991 691.952 331.991C689.833 331.991 688.598 333.889 688.598 336.541C688.598 339.453 690.015 341.078 691.952 341.078ZM691.952 340.064C690.639 340.064 689.716 338.803 689.716 336.541C689.716 334.396 690.535 333.005 691.952 333.005C693.278 333.005 694.188 334.266 694.188 336.541C694.188 338.673 693.382 340.064 691.952 340.064ZM700.695 331.77V341H701.826V337.477H703.724C705.648 337.477 706.974 336.58 706.974 334.63C706.974 332.992 706.077 331.77 703.919 331.77H700.695ZM703.62 336.45H701.826V332.797H703.802C705.037 332.797 705.804 333.421 705.804 334.604C705.804 335.67 705.154 336.45 703.62 336.45ZM708.667 331.77V341H709.811V333.967H709.824L712.827 339.141H713.594L716.597 333.967H716.623V341H717.754V331.77H716.623L713.23 337.737H713.204L709.811 331.77H708.667ZM683.221 351.382V359H684.313V350.069H683.403L680.907 351.915L681.44 352.734L683.221 351.382ZM689.54 359.078C691.672 359.078 692.894 357.18 692.894 354.541C692.894 351.616 691.477 349.991 689.54 349.991C687.421 349.991 686.186 351.889 686.186 354.541C686.186 357.453 687.603 359.078 689.54 359.078ZM689.54 358.064C688.227 358.064 687.304 356.803 687.304 354.541C687.304 352.396 688.123 351.005 689.54 351.005C690.866 351.005 691.776 352.266 691.776 354.541C691.776 356.673 690.97 358.064 689.54 358.064ZM693.259 360.079L694.104 360.469L699.096 349.393L698.264 348.99L693.259 360.079ZM701.503 351.382V359H702.595V350.069H701.685L699.189 351.915L699.722 352.734L701.503 351.382ZM706.34 351.382V359H707.432V350.069H706.522L704.026 351.915L704.559 352.734L706.34 351.382Z" fill="#858C94"/>
<path d="M770.617 333.382V341H771.709V332.069H770.799L768.303 333.915L768.836 334.734L770.617 333.382ZM775.454 333.382V341H776.546V332.069H775.636L773.14 333.915L773.673 334.734L775.454 333.382ZM779.199 336.125C779.628 336.125 779.966 335.787 779.966 335.358C779.966 334.929 779.628 334.591 779.199 334.591C778.77 334.591 778.419 334.929 778.419 335.358C778.419 335.787 778.77 336.125 779.199 336.125ZM779.199 341.091C779.628 341.091 779.966 340.753 779.966 340.324C779.966 339.895 779.628 339.557 779.199 339.557C778.77 339.557 778.419 339.895 778.419 340.324C778.419 340.753 778.77 341.091 779.199 341.091ZM781.232 340.246L781.245 341H786.861V339.999H782.909L782.896 339.96L785.223 337.62C786.328 336.502 786.757 335.631 786.757 334.63C786.757 332.979 785.457 332.004 784.027 332.004C782.636 332.004 781.739 332.706 781.245 333.694L782.051 334.253C782.467 333.447 783.117 333.031 783.962 333.031C784.95 333.031 785.639 333.759 785.639 334.747C785.639 335.631 785.041 336.346 784.287 337.126L781.232 340.246ZM791.511 341.078C793.643 341.078 794.865 339.18 794.865 336.541C794.865 333.616 793.448 331.991 791.511 331.991C789.392 331.991 788.157 333.889 788.157 336.541C788.157 339.453 789.574 341.078 791.511 341.078ZM791.511 340.064C790.198 340.064 789.275 338.803 789.275 336.541C789.275 334.396 790.094 333.005 791.511 333.005C792.837 333.005 793.747 334.266 793.747 336.541C793.747 338.673 792.941 340.064 791.511 340.064ZM800.253 331.77V341H801.384V337.477H803.282C805.206 337.477 806.532 336.58 806.532 334.63C806.532 332.992 805.635 331.77 803.477 331.77H800.253ZM803.178 336.45H801.384V332.797H803.36C804.595 332.797 805.362 333.421 805.362 334.604C805.362 335.67 804.712 336.45 803.178 336.45ZM808.226 331.77V341H809.37V333.967H809.383L812.386 339.141H813.153L816.156 333.967H816.182V341H817.313V331.77H816.182L812.789 337.737H812.763L809.37 331.77H808.226ZM781.846 351.382V359H782.938V350.069H782.028L779.532 351.915L780.065 352.734L781.846 351.382ZM788.165 359.078C790.297 359.078 791.519 357.18 791.519 354.541C791.519 351.616 790.102 349.991 788.165 349.991C786.046 349.991 784.811 351.889 784.811 354.541C784.811 357.453 786.228 359.078 788.165 359.078ZM788.165 358.064C786.852 358.064 785.929 356.803 785.929 354.541C785.929 352.396 786.748 351.005 788.165 351.005C789.491 351.005 790.401 352.266 790.401 354.541C790.401 356.673 789.595 358.064 788.165 358.064ZM791.884 360.079L792.729 360.469L797.721 349.393L796.889 348.99L791.884 360.079ZM800.128 351.382V359H801.22V350.069H800.31L797.814 351.915L798.347 352.734L800.128 351.382ZM804.965 351.382V359H806.057V350.069H805.147L802.651 351.915L803.184 352.734L804.965 351.382Z" fill="#858C94"/>
<path d="M870.128 333.382V341H871.22V332.069H870.31L867.814 333.915L868.347 334.734L870.128 333.382ZM874.965 333.382V341H876.057V332.069H875.147L872.651 333.915L873.184 334.734L874.965 333.382ZM878.71 336.125C879.139 336.125 879.477 335.787 879.477 335.358C879.477 334.929 879.139 334.591 878.71 334.591C878.281 334.591 877.93 334.929 877.93 335.358C877.93 335.787 878.281 336.125 878.71 336.125ZM878.71 341.091C879.139 341.091 879.477 340.753 879.477 340.324C879.477 339.895 879.139 339.557 878.71 339.557C878.281 339.557 877.93 339.895 877.93 340.324C877.93 340.753 878.281 341.091 878.71 341.091ZM883.655 341.078C885.306 341.078 886.541 340.09 886.541 338.608C886.541 337.542 885.943 336.736 884.994 336.372V336.333C885.839 335.969 886.307 335.163 886.307 334.331C886.307 332.849 885.085 331.991 883.564 331.991C882.277 331.991 881.367 332.589 880.899 333.408L881.783 333.902C882.134 333.382 882.654 333.005 883.538 333.005C884.474 333.005 885.202 333.59 885.202 334.474C885.202 335.189 884.734 335.904 883.59 335.904H882.719V336.84H883.46C884.786 336.84 885.423 337.594 885.423 338.452C885.423 339.427 884.617 340.064 883.577 340.064C882.537 340.064 881.861 339.596 881.549 338.881L880.6 339.31C881.042 340.337 882.134 341.078 883.655 341.078ZM891.25 341.078C893.382 341.078 894.604 339.18 894.604 336.541C894.604 333.616 893.187 331.991 891.25 331.991C889.131 331.991 887.896 333.889 887.896 336.541C887.896 339.453 889.313 341.078 891.25 341.078ZM891.25 340.064C889.937 340.064 889.014 338.803 889.014 336.541C889.014 334.396 889.833 333.005 891.25 333.005C892.576 333.005 893.486 334.266 893.486 336.541C893.486 338.673 892.68 340.064 891.25 340.064ZM899.992 331.77V341H901.123V337.477H903.021C904.945 337.477 906.271 336.58 906.271 334.63C906.271 332.992 905.374 331.77 903.216 331.77H899.992ZM902.917 336.45H901.123V332.797H903.099C904.334 332.797 905.101 333.421 905.101 334.604C905.101 335.67 904.451 336.45 902.917 336.45ZM907.965 331.77V341H909.109V333.967H909.122L912.125 339.141H912.892L915.895 333.967H915.921V341H917.052V331.77H915.921L912.528 337.737H912.502L909.109 331.77H907.965ZM881.471 351.382V359H882.563V350.069H881.653L879.157 351.915L879.69 352.734L881.471 351.382ZM887.79 359.078C889.922 359.078 891.144 357.18 891.144 354.541C891.144 351.616 889.727 349.991 887.79 349.991C885.671 349.991 884.436 351.889 884.436 354.541C884.436 357.453 885.853 359.078 887.79 359.078ZM887.79 358.064C886.477 358.064 885.554 356.803 885.554 354.541C885.554 352.396 886.373 351.005 887.79 351.005C889.116 351.005 890.026 352.266 890.026 354.541C890.026 356.673 889.22 358.064 887.79 358.064ZM891.509 360.079L892.354 360.469L897.346 349.393L896.514 348.99L891.509 360.079ZM899.753 351.382V359H900.845V350.069H899.935L897.439 351.915L897.972 352.734L899.753 351.382ZM904.59 351.382V359H905.682V350.069H904.772L902.276 351.915L902.809 352.734L904.59 351.382Z" fill="#858C94"/>
<path d="M970.056 333.382V341H971.148V332.069H970.238L967.742 333.915L968.275 334.734L970.056 333.382ZM974.893 333.382V341H975.985V332.069H975.075L972.579 333.915L973.112 334.734L974.893 333.382ZM978.638 336.125C979.067 336.125 979.405 335.787 979.405 335.358C979.405 334.929 979.067 334.591 978.638 334.591C978.209 334.591 977.858 334.929 977.858 335.358C977.858 335.787 978.209 336.125 978.638 336.125ZM978.638 341.091C979.067 341.091 979.405 340.753 979.405 340.324C979.405 339.895 979.067 339.557 978.638 339.557C978.209 339.557 977.858 339.895 977.858 340.324C977.858 340.753 978.209 341.091 978.638 341.091ZM984.714 339.427V341H985.806V339.427H987.106V338.439H985.806V332.069H984.883L980.567 338.647V339.427H984.714ZM984.753 338.465H981.841L984.753 333.928V338.465ZM991.572 341.078C993.704 341.078 994.926 339.18 994.926 336.541C994.926 333.616 993.509 331.991 991.572 331.991C989.453 331.991 988.218 333.889 988.218 336.541C988.218 339.453 989.635 341.078 991.572 341.078ZM991.572 340.064C990.259 340.064 989.336 338.803 989.336 336.541C989.336 334.396 990.155 333.005 991.572 333.005C992.898 333.005 993.808 334.266 993.808 336.541C993.808 338.673 993.002 340.064 991.572 340.064ZM1000.31 331.77V341H1001.44V337.477H1003.34C1005.27 337.477 1006.59 336.58 1006.59 334.63C1006.59 332.992 1005.7 331.77 1003.54 331.77H1000.31ZM1003.24 336.45H1001.44V332.797H1003.42C1004.66 332.797 1005.42 333.421 1005.42 334.604C1005.42 335.67 1004.77 336.45 1003.24 336.45ZM1008.29 331.77V341H1009.43V333.967H1009.44L1012.45 339.141H1013.21L1016.22 333.967H1016.24V341H1017.37V331.77H1016.24L1012.85 337.737H1012.82L1009.43 331.77H1008.29ZM981.596 351.382V359H982.688V350.069H981.778L979.282 351.915L979.815 352.734L981.596 351.382ZM987.915 359.078C990.047 359.078 991.269 357.18 991.269 354.541C991.269 351.616 989.852 349.991 987.915 349.991C985.796 349.991 984.561 351.889 984.561 354.541C984.561 357.453 985.978 359.078 987.915 359.078ZM987.915 358.064C986.602 358.064 985.679 356.803 985.679 354.541C985.679 352.396 986.498 351.005 987.915 351.005C989.241 351.005 990.151 352.266 990.151 354.541C990.151 356.673 989.345 358.064 987.915 358.064ZM991.634 360.079L992.479 360.469L997.471 349.393L996.639 348.99L991.634 360.079ZM999.878 351.382V359H1000.97V350.069H1000.06L997.564 351.915L998.097 352.734L999.878 351.382ZM1004.71 351.382V359H1005.81V350.069H1004.9L1002.4 351.915L1002.93 352.734L1004.71 351.382Z" fill="#858C94"/>
<path d="M155 318.433L192.875 311.894L230.073 301.509L267.271 278.43L305.146 246.888L342.344 229.195L380.219 222.656L418.093 226.117L455.292 231.887L493.166 240.734L530.364 243.042L568.239 248.812L605.437 254.966L643.312 255.735L680.51 262.659L717.708 272.66L755.583 266.89L792.781 272.66L830.656 276.891L867.854 280.353L905.729 294.97L942.927 308.817L980.802 312.279L1018 316.895" stroke="#5F41B2" stroke-width="2" stroke-linecap="round" stroke-linejoin="round"/>
<path d="M155 318.433L192.875 311.894L230.073 301.509L267.271 278.43L305.146 246.888L342.344 229.195L380.219 222.656L418.093 226.117L455.292 231.887L493.166 240.734L530.364 243.042L568.239 248.812L605.437 254.966L643.312 255.735L680.51 262.659L717.708 272.66L755.583 266.89L792.781 272.66L830.656 276.891L867.854 280.353L905.729 294.97L942.927 308.817L980.802 312.279L1018 316.895" stroke="#5F41B2" stroke-width="6" stroke-linecap="round" stroke-linejoin="round" stroke-dasharray="0.01 30"/>
<path d="M155 318.433L192.875 311.894L230.073 301.509L267.271 278.43L305.146 246.888L342.344 229.195L380.219 222.656L418.093 226.117L455.292 231.887L493.166 240.734L530.364 243.042L568.239 248.812L605.437 254.966L643.312 255.735L680.51 262.659L717.708 272.66L755.583 266.89L792.781 272.66L830.656 276.891L867.854 280.353L905.729 294.97L942.927 308.817L980.802 312.279L1018 316.895" stroke="white" stroke-width="4" stroke-linecap="round" stroke-linejoin="round" stroke-dasharray="0.01 30"/>
<path d="M155 324.32L192.875 317.903L230.073 307.711L267.271 288.082L305.146 260.903L342.344 233.725L380.219 230.327L418.093 234.48L455.292 240.142L493.166 250.334L530.364 257.883L568.239 256.751L605.437 264.301L643.312 265.811L680.51 271.85L717.708 272.605L755.583 269.208L792.781 274.115L830.656 273.738L867.854 295.254L905.729 302.049L942.927 316.393L980.802 316.016L1018 321.3" stroke="#DADEE3" stroke-width="2" stroke-linecap="round" stroke-linejoin="round"/>
<path d="M155 324.222L192.875 317.812L230.073 307.63L267.271 288.022L305.146 260.871L342.344 233.721L380.219 230.327L418.093 234.475L455.292 240.132L493.166 250.313L530.364 257.855L568.239 256.723L605.437 264.265L643.312 265.774L680.51 271.807L717.708 272.561L755.583 269.167L792.781 274.07L830.656 273.692L867.854 295.186L905.729 301.974L942.927 316.303L980.802 315.926L1018 321.206" stroke="#DADEE3" stroke-width="6" stroke-linecap="round" stroke-linejoin="round" stroke-dasharray="0.01 32.2"/>
<path d="M155 324.222L192.875 317.812L230.073 307.63L267.271 288.022L305.146 260.871L342.344 233.721L380.219 230.327L418.093 234.475L455.292 240.132L493.166 250.313L530.364 257.855L568.239 256.723L605.437 264.265L643.312 265.774L680.51 271.807L717.708 272.561L755.583 269.167L792.781 274.07L830.656 273.692L867.854 295.186L905.729 301.974L942.927 316.303L980.802 315.926L1018 321.206" stroke="white" stroke-width="4" stroke-linecap="round" stroke-linejoin="round" stroke-dasharray="0.01 32.2"/>
<rect width="86.8571" height="124" transform="translate(412.011 214)" fill="url(#paint0_linear_0_137)" fill-opacity="0.04"/>
<g filter="url(#filter1_d_0_137)">
<circle cx="455.439" cy="240.239" r="2" fill="#DADEE3"/>
<circle cx="455.439" cy="240.239" r="3" stroke="white" stroke-width="2"/>
</g>
<g filter="url(#filter2_d_0_137)">
<circle cx="455.439" cy="231.795" r="2" fill="#5F41B2"/>
<circle cx="455.439" cy="231.795" r="3" stroke="white" stroke-width="2"/>
</g>
<g filter="url(#filter3_ddd_0_137)">
<rect x="472.163" y="216.795" width="91" height="88" rx="8" fill="white"/>
<path d="M488.367 228.227V229.079H491.391V236.795H492.363V229.079H495.387V228.227H488.367ZM499.509 230.423C498.573 230.423 497.841 230.735 497.289 231.383C496.761 231.995 496.497 232.763 496.497 233.699C496.497 234.623 496.761 235.391 497.289 235.991C497.841 236.639 498.573 236.963 499.509 236.963C500.433 236.963 501.177 236.639 501.741 235.991C502.257 235.391 502.521 234.623 502.521 233.699C502.521 232.763 502.257 231.995 501.729 231.383C501.177 230.735 500.433 230.423 499.509 230.423ZM499.509 231.227C500.157 231.227 500.673 231.479 501.057 231.983C501.381 232.439 501.549 233.003 501.549 233.699C501.549 234.371 501.381 234.947 501.057 235.403C500.673 235.907 500.157 236.159 499.509 236.159C498.849 236.159 498.333 235.907 497.973 235.403C497.637 234.947 497.481 234.383 497.481 233.699C497.481 233.003 497.637 232.439 497.973 231.983C498.333 231.479 498.849 231.227 499.509 231.227ZM508.752 228.059V231.731C508.272 230.855 507.588 230.423 506.7 230.423C505.812 230.423 505.128 230.747 504.624 231.419C504.156 232.019 503.928 232.763 503.928 233.675C503.928 234.611 504.156 235.379 504.624 235.979C505.128 236.627 505.836 236.963 506.748 236.963C507.684 236.963 508.38 236.567 508.812 235.775V236.795H509.712V228.059H508.752ZM506.904 231.215C507.456 231.215 507.912 231.431 508.26 231.887C508.596 232.331 508.776 232.919 508.776 233.639V233.759C508.776 234.455 508.62 235.019 508.32 235.451C507.972 235.931 507.492 236.171 506.868 236.171C506.196 236.171 505.692 235.919 505.356 235.439C505.056 235.007 504.912 234.419 504.912 233.675C504.912 232.931 505.056 232.355 505.368 231.935C505.704 231.455 506.22 231.215 506.904 231.215ZM514.3 230.423C513.556 230.423 512.968 230.567 512.512 230.855C512.008 231.167 511.684 231.659 511.552 232.307L512.5 232.379C512.596 231.983 512.8 231.683 513.124 231.491C513.412 231.299 513.784 231.215 514.24 231.215C515.32 231.215 515.86 231.731 515.86 232.775V233.099L514.372 233.123C513.436 233.135 512.716 233.315 512.212 233.651C511.636 234.011 511.36 234.539 511.36 235.247C511.36 235.751 511.552 236.171 511.936 236.495C512.308 236.807 512.8 236.963 513.424 236.963C514 236.963 514.516 236.831 514.972 236.579C515.356 236.363 515.68 236.087 515.92 235.751V236.795H516.82V232.811C516.82 232.091 516.628 231.527 516.268 231.119C515.836 230.651 515.188 230.423 514.3 230.423ZM515.86 233.819V234.347C515.86 234.827 515.632 235.259 515.188 235.631C514.732 236.015 514.216 236.207 513.628 236.207C513.244 236.207 512.932 236.111 512.692 235.931C512.452 235.739 512.344 235.511 512.344 235.223C512.344 234.323 513.04 233.867 514.432 233.843L515.86 233.819ZM518.019 230.591L520.479 236.651L519.411 239.171H520.455L523.851 230.591H522.795L520.959 235.487L519.063 230.591H518.019Z" fill="#5F41B2"/>
<path d="M491.883 244.059C491.019 244.059 490.311 244.347 489.783 244.923C489.255 245.487 488.979 246.255 488.979 247.215H489.963C489.975 246.459 490.155 245.883 490.491 245.499C490.803 245.091 491.259 244.899 491.847 244.899C492.399 244.899 492.843 245.043 493.155 245.331C493.467 245.619 493.623 246.015 493.623 246.543C493.623 247.095 493.395 247.611 492.963 248.079C492.735 248.319 492.291 248.667 491.619 249.147C490.707 249.771 490.095 250.287 489.759 250.671C489.183 251.307 488.907 252.015 488.907 252.795H494.619V251.919H490.119C490.275 251.343 490.899 250.683 491.991 249.951C492.879 249.351 493.467 248.883 493.767 248.571C494.319 247.971 494.607 247.299 494.607 246.555C494.607 245.811 494.343 245.199 493.839 244.743C493.323 244.287 492.675 244.059 491.883 244.059ZM497.019 244.227L496.563 248.955H497.499C497.667 248.619 497.931 248.355 498.267 248.187C498.591 248.007 498.951 247.923 499.359 247.923C499.983 247.923 500.475 248.103 500.823 248.487C501.183 248.859 501.375 249.387 501.375 250.071C501.375 250.671 501.171 251.163 500.787 251.547C500.391 251.931 499.899 252.123 499.299 252.123C498.771 252.123 498.327 251.991 497.991 251.739C497.607 251.451 497.391 251.031 497.343 250.491H496.371C496.431 251.271 496.755 251.895 497.355 252.351C497.883 252.759 498.531 252.963 499.287 252.963C500.127 252.963 500.847 252.699 501.423 252.183C502.035 251.631 502.347 250.923 502.347 250.059C502.347 249.135 502.083 248.415 501.579 247.887C501.075 247.371 500.415 247.119 499.599 247.119C499.203 247.119 498.843 247.179 498.507 247.323C498.135 247.467 497.823 247.683 497.583 247.971H497.535L497.823 245.103H501.999V244.227H497.019Z" fill="black" fill-opacity="0.87"/>
<path d="M488.223 268.227L491.643 273.315V276.795H492.627V273.315L496.047 268.227H494.859L492.135 272.403L489.411 268.227H488.223ZM499.809 270.423C498.909 270.423 498.201 270.747 497.673 271.395C497.145 272.007 496.893 272.775 496.893 273.687C496.893 274.695 497.157 275.487 497.709 276.087C498.237 276.663 498.957 276.963 499.845 276.963C500.649 276.963 501.309 276.723 501.825 276.267C502.245 275.883 502.521 275.403 502.665 274.803H501.705C501.549 275.235 501.345 275.559 501.081 275.775C500.769 276.027 500.349 276.159 499.845 276.159C499.257 276.159 498.789 275.967 498.453 275.583C498.117 275.199 497.937 274.659 497.889 273.963H502.785C502.761 272.883 502.521 272.031 502.065 271.431C501.561 270.759 500.805 270.423 499.809 270.423ZM499.833 271.227C501.009 271.227 501.669 271.887 501.789 273.219H497.913C497.973 272.607 498.165 272.127 498.501 271.767C498.837 271.407 499.281 271.227 499.833 271.227ZM506.505 270.423C505.809 270.423 505.233 270.579 504.801 270.891C504.333 271.203 504.105 271.611 504.105 272.139C504.105 272.667 504.333 273.063 504.813 273.351C505.101 273.543 505.617 273.723 506.349 273.903C507.021 274.071 507.465 274.203 507.669 274.299C508.053 274.491 508.257 274.755 508.257 275.103C508.257 275.799 507.693 276.159 506.589 276.159C506.061 276.159 505.665 276.063 505.401 275.871C505.137 275.655 504.957 275.307 504.885 274.815H503.949C504.093 276.243 504.981 276.963 506.613 276.963C508.365 276.963 509.241 276.315 509.241 275.043C509.241 274.503 508.989 274.083 508.497 273.771C508.173 273.567 507.645 273.375 506.901 273.195C506.277 273.027 505.845 272.895 505.617 272.787C505.257 272.607 505.089 272.379 505.089 272.115C505.089 271.839 505.221 271.623 505.485 271.467C505.725 271.299 506.061 271.227 506.493 271.227C506.985 271.227 507.369 271.323 507.633 271.515C507.873 271.683 508.029 271.971 508.113 272.355H509.049C508.881 271.059 508.041 270.423 506.505 270.423ZM512.424 268.587L511.476 268.983V270.591H510.228V271.395H511.476V275.343C511.476 275.811 511.572 276.159 511.776 276.399C511.992 276.663 512.364 276.795 512.868 276.795H513.804V275.991H513.012C512.796 275.991 512.64 275.931 512.556 275.835C512.46 275.739 512.424 275.571 512.424 275.343V271.395H513.96V270.591H512.424V268.587ZM517.989 270.423C517.089 270.423 516.381 270.747 515.853 271.395C515.325 272.007 515.073 272.775 515.073 273.687C515.073 274.695 515.337 275.487 515.889 276.087C516.417 276.663 517.137 276.963 518.025 276.963C518.829 276.963 519.489 276.723 520.005 276.267C520.425 275.883 520.701 275.403 520.845 274.803H519.885C519.729 275.235 519.525 275.559 519.261 275.775C518.949 276.027 518.529 276.159 518.025 276.159C517.437 276.159 516.969 275.967 516.633 275.583C516.297 275.199 516.117 274.659 516.069 273.963H520.965C520.941 272.883 520.701 272.031 520.245 271.431C519.741 270.759 518.985 270.423 517.989 270.423ZM518.013 271.227C519.189 271.227 519.849 271.887 519.969 273.219H516.093C516.153 272.607 516.345 272.127 516.681 271.767C517.017 271.407 517.461 271.227 518.013 271.227ZM525.213 270.423C524.781 270.423 524.409 270.555 524.085 270.819C523.821 271.023 523.605 271.311 523.437 271.671V270.591H522.489V276.795H523.437V273.507C523.437 272.931 523.593 272.439 523.929 272.031C524.253 271.599 524.661 271.395 525.141 271.395C525.441 271.395 525.753 271.431 526.065 271.527V270.567C525.837 270.471 525.549 270.423 525.213 270.423ZM531.856 268.059V271.731C531.376 270.855 530.692 270.423 529.804 270.423C528.916 270.423 528.232 270.747 527.728 271.419C527.26 272.019 527.032 272.763 527.032 273.675C527.032 274.611 527.26 275.379 527.728 275.979C528.232 276.627 528.94 276.963 529.852 276.963C530.788 276.963 531.484 276.567 531.916 275.775V276.795H532.816V268.059H531.856ZM530.008 271.215C530.56 271.215 531.016 271.431 531.364 271.887C531.7 272.331 531.88 272.919 531.88 273.639V273.759C531.88 274.455 531.724 275.019 531.424 275.451C531.076 275.931 530.596 276.171 529.972 276.171C529.3 276.171 528.796 275.919 528.46 275.439C528.16 275.007 528.016 274.419 528.016 273.675C528.016 272.931 528.16 272.355 528.472 271.935C528.808 271.455 529.324 271.215 530.008 271.215ZM537.404 270.423C536.66 270.423 536.072 270.567 535.616 270.855C535.112 271.167 534.788 271.659 534.656 272.307L535.604 272.379C535.7 271.983 535.904 271.683 536.228 271.491C536.516 271.299 536.888 271.215 537.344 271.215C538.424 271.215 538.964 271.731 538.964 272.775V273.099L537.476 273.123C536.54 273.135 535.82 273.315 535.316 273.651C534.74 274.011 534.464 274.539 534.464 275.247C534.464 275.751 534.656 276.171 535.04 276.495C535.412 276.807 535.904 276.963 536.528 276.963C537.104 276.963 537.62 276.831 538.076 276.579C538.46 276.363 538.784 276.087 539.024 275.751V276.795H539.924V272.811C539.924 272.091 539.732 271.527 539.372 271.119C538.94 270.651 538.292 270.423 537.404 270.423ZM538.964 273.819V274.347C538.964 274.827 538.736 275.259 538.292 275.631C537.836 276.015 537.32 276.207 536.732 276.207C536.348 276.207 536.036 276.111 535.796 275.931C535.556 275.739 535.448 275.511 535.448 275.223C535.448 274.323 536.144 273.867 537.536 273.843L538.964 273.819ZM541.123 270.591L543.583 276.651L542.515 279.171H543.559L546.955 270.591H545.899L544.063 275.487L542.167 270.591H541.123Z" fill="#A5ABB3"/>
<path d="M491.883 284.059C491.019 284.059 490.311 284.347 489.783 284.923C489.255 285.487 488.979 286.255 488.979 287.215H489.963C489.975 286.459 490.155 285.883 490.491 285.499C490.803 285.091 491.259 284.899 491.847 284.899C492.399 284.899 492.843 285.043 493.155 285.331C493.467 285.619 493.623 286.015 493.623 286.543C493.623 287.095 493.395 287.611 492.963 288.079C492.735 288.319 492.291 288.667 491.619 289.147C490.707 289.771 490.095 290.287 489.759 290.671C489.183 291.307 488.907 292.015 488.907 292.795H494.619V291.919H490.119C490.275 291.343 490.899 290.683 491.991 289.951C492.879 289.351 493.467 288.883 493.767 288.571C494.319 287.971 494.607 287.299 494.607 286.555C494.607 285.811 494.343 285.199 493.839 284.743C493.323 284.287 492.675 284.059 491.883 284.059ZM499.443 284.059C498.627 284.059 497.967 284.287 497.463 284.755C496.935 285.223 496.623 285.871 496.551 286.699H497.523C497.583 286.123 497.775 285.679 498.111 285.367C498.435 285.055 498.879 284.911 499.455 284.911C500.007 284.911 500.451 285.043 500.763 285.331C501.051 285.595 501.207 285.967 501.207 286.447C501.207 286.927 501.051 287.299 500.751 287.563C500.451 287.815 500.019 287.947 499.443 287.947H498.783V288.715H499.479C500.079 288.715 500.535 288.847 500.871 289.135C501.207 289.423 501.375 289.819 501.375 290.335C501.375 290.839 501.195 291.259 500.859 291.595C500.487 291.943 499.995 292.123 499.383 292.123C498.843 292.123 498.399 291.967 498.039 291.679C497.619 291.331 497.391 290.815 497.367 290.143H496.371C496.443 291.103 496.779 291.835 497.391 292.339C497.907 292.747 498.567 292.963 499.383 292.963C500.271 292.963 500.991 292.711 501.543 292.207C502.083 291.715 502.359 291.079 502.359 290.299C502.359 289.795 502.215 289.375 501.927 289.039C501.663 288.703 501.279 288.463 500.775 288.307C501.711 287.995 502.179 287.347 502.179 286.387C502.179 285.667 501.927 285.103 501.435 284.683C500.931 284.263 500.259 284.059 499.443 284.059Z" fill="black" fill-opacity="0.87"/>
</g>
</g>
<defs>
<filter id="filter0_dd_0_137" x="0" y="0" width="1123" height="475" filterUnits="userSpaceOnUse" color-interpolation-filters="sRGB">
<feFlood flood-opacity="0" result="BackgroundImageFix"/>
<feColorMatrix in="SourceAlpha" type="matrix" values="0 0 0 0 0 0 0 0 0 0 0 0 0 0 0 0 0 0 127 0" result="hardAlpha"/>
<feOffset/>
<feGaussianBlur stdDeviation="0.5"/>
<feColorMatrix type="matrix" values="0 0 0 0 0.0588235 0 0 0 0 0.133333 0 0 0 0 0.262745 0 0 0 0.08 0"/>
<feBlend mode="normal" in2="BackgroundImageFix" result="effect1_dropShadow_0_137"/>
<feColorMatrix in="SourceAlpha" type="matrix" values="0 0 0 0 0 0 0 0 0 0 0 0 0 0 0 0 0 0 127 0" result="hardAlpha"/>
<feOffset dy="8"/>
<feGaussianBlur stdDeviation="32"/>
<feColorMatrix type="matrix" values="0 0 0 0 0.0588235 0 0 0 0 0.133333 0 0 0 0 0.262745 0 0 0 0.05 0"/>
<feBlend mode="normal" in2="effect1_dropShadow_0_137" result="effect2_dropShadow_0_137"/>
<feBlend mode="normal" in="SourceGraphic" in2="effect2_dropShadow_0_137" result="shape"/>
</filter>
<filter id="filter1_d_0_137" x="446.439" y="231.239" width="18" height="18" filterUnits="userSpaceOnUse" color-interpolation-filters="sRGB">
<feFlood flood-opacity="0" result="BackgroundImageFix"/>
<feColorMatrix in="SourceAlpha" type="matrix" values="0 0 0 0 0 0 0 0 0 0 0 0 0 0 0 0 0 0 127 0" result="hardAlpha"/>
<feMorphology radius="5" operator="dilate" in="SourceAlpha" result="effect1_dropShadow_0_137"/>
<feOffset/>
<feColorMatrix type="matrix" values="0 0 0 0 0.545098 0 0 0 0 0.521569 0 0 0 0 0.886275 0 0 0 0.15 0"/>
<feBlend mode="normal" in2="BackgroundImageFix" result="effect1_dropShadow_0_137"/>
<feBlend mode="normal" in="SourceGraphic" in2="effect1_dropShadow_0_137" result="shape"/>
</filter>
<filter id="filter2_d_0_137" x="446.439" y="222.795" width="18" height="18" filterUnits="userSpaceOnUse" color-interpolation-filters="sRGB">
<feFlood flood-opacity="0" result="BackgroundImageFix"/>
<feColorMatrix in="SourceAlpha" type="matrix" values="0 0 0 0 0 0 0 0 0 0 0 0 0 0 0 0 0 0 127 0" result="hardAlpha"/>
<feMorphology radius="5" operator="dilate" in="SourceAlpha" result="effect1_dropShadow_0_137"/>
<feOffset/>
<feColorMatrix type="matrix" values="0 0 0 0 0.956863 0 0 0 0 0.631373 0 0 0 0 0.392157 0 0 0 0.15 0"/>
<feBlend mode="normal" in2="BackgroundImageFix" result="effect1_dropShadow_0_137"/>
<feBlend mode="normal" in="SourceGraphic" in2="effect1_dropShadow_0_137" result="shape"/>
</filter>
<filter id="filter3_ddd_0_137" x="454.163" y="206.795" width="127" height="124" filterUnits="userSpaceOnUse" color-interpolation-filters="sRGB">
<feFlood flood-opacity="0" result="BackgroundImageFix"/>
<feColorMatrix in="SourceAlpha" type="matrix" values="0 0 0 0 0 0 0 0 0 0 0 0 0 0 0 0 0 0 127 0" result="hardAlpha"/>
<feOffset/>
<feGaussianBlur stdDeviation="0.5"/>
<feColorMatrix type="matrix" values="0 0 0 0 0.0588235 0 0 0 0 0.133333 0 0 0 0 0.262745 0 0 0 0.16 0"/>
<feBlend mode="normal" in2="BackgroundImageFix" result="effect1_dropShadow_0_137"/>
<feColorMatrix in="SourceAlpha" type="matrix" values="0 0 0 0 0 0 0 0 0 0 0 0 0 0 0 0 0 0 127 0" result="hardAlpha"/>
<feOffset dy="1"/>
<feGaussianBlur stdDeviation="1.5"/>
<feColorMatrix type="matrix" values="0 0 0 0 0.0588235 0 0 0 0 0.133333 0 0 0 0 0.262745 0 0 0 0.12 0"/>
<feBlend mode="normal" in2="effect1_dropShadow_0_137" result="effect2_dropShadow_0_137"/>
<feColorMatrix in="SourceAlpha" type="matrix" values="0 0 0 0 0 0 0 0 0 0 0 0 0 0 0 0 0 0 127 0" result="hardAlpha"/>
<feMorphology radius="6" operator="erode" in="SourceAlpha" result="effect3_dropShadow_0_137"/>
<feOffset dy="8"/>
<feGaussianBlur stdDeviation="12"/>
<feColorMatrix type="matrix" values="0 0 0 0 0.0588235 0 0 0 0 0.133333 0 0 0 0 0.262745 0 0 0 0.16 0"/>
<feBlend mode="normal" in2="effect2_dropShadow_0_137" result="effect3_dropShadow_0_137"/>
<feBlend mode="normal" in="SourceGraphic" in2="effect3_dropShadow_0_137" result="shape"/>
</filter>
<linearGradient id="paint0_linear_0_137" x1="43.4286" y1="0" x2="43.4286" y2="124" gradientUnits="userSpaceOnUse">
<stop stop-color="#1B1664" stop-opacity="0"/>
<stop offset="1" stop-color="#1B1664"/>
</linearGradient>
</defs>
</svg>
