<svg width="24" height="24" viewBox="0 0 24 24" fill="none" xmlns="http://www.w3.org/2000/svg">
<path opacity="0.35" d="M12 22C17.5228 22 22 17.5228 22 12C22 6.47715 17.5228 2 12 2C6.47715 2 2 6.47715 2 12C2 17.5228 6.47715 22 12 22Z" fill="#A5ABB3"/>
<path d="M21.124 7.921C21.373 7.827 21.588 7.65 21.701 7.377C22.288 5.968 22.009 4.283 20.863 3.137C19.717 1.991 18.032 1.711 16.623 2.298C16.351 2.412 16.173 2.627 16.079 2.875C18.32 3.879 20.121 5.68 21.124 7.921Z" fill="#A5ABB3"/>
<path d="M2.876 7.921C3.879 5.68 5.68 3.879 7.921 2.876C7.827 2.627 7.65 2.412 7.377 2.298C5.968 1.711 4.283 1.99 3.137 3.137C1.991 4.284 1.711 5.968 2.299 7.377C2.412 7.649 2.627 7.827 2.876 7.921Z" fill="#A5ABB3"/>
<path d="M12.278 13.689V13.655C12.278 13.453 12.325 13.253 12.415 13.072L15.037 7.792H13.403C12.908 7.792 12.507 7.391 12.507 6.896C12.506 6.401 12.908 6 13.403 6H16.052C16.776 6 17.363 6.587 17.363 7.311C17.363 7.513 17.316 7.712 17.227 7.892L14.617 13.169H16.467C16.962 13.169 17.363 13.57 17.363 14.065V14.103C17.363 14.598 16.962 14.999 16.467 14.999H13.59C12.865 15 12.278 14.413 12.278 13.689Z" fill="#A5ABB3"/>
<path d="M7.14301 16.98V16.954C7.14301 16.797 7.17901 16.641 7.24901 16.501L9.28801 12.395H8.01701C7.63201 12.395 7.32001 12.083 7.32001 11.698C7.32001 11.312 7.63201 11 8.01701 11H10.077C10.64 11 11.097 11.457 11.097 12.02C11.097 12.177 11.061 12.332 10.991 12.472L8.96101 16.576H10.4C10.785 16.576 11.097 16.888 11.097 17.273V17.303C11.097 17.688 10.785 18 10.4 18H8.162C7.599 18 7.14301 17.543 7.14301 16.98Z" fill="#A5ABB3"/>
</svg>
